# xmcd CD database file
#
# Track frame offsets:
#	187
#	32027
#	64935
#	91192
#	111692
#	145467
#
# Disc length: 2296 seconds
#
# Revision: 0
# Processed by: cddbd v1.5.1PL0 Copyright (c) Steve Scherf et al.
# Submitted via: CDex 1.51
#
DISCID=5708f606
DTITLE=BENNY GOLSON - FREE
DYEAR=1962
DGENRE=Jazz
TTITLE0=SOCK CHA CHA
TTITLE1=MAD ABOUT THE BOY
TTITLE2=JUST BY MYSELF
TTITLE3=SHADES OF STEIN
TTITLE4=MY ROMANCE
TTITLE5=JUST IN TIME
EXTD=YEAR: 1962
EXTT0=
EXTT1=
EXTT2=
EXTT3=
EXTT4=
EXTT5=
PLAYORDER=
